<?xml version="1.0" encoding="utf-8"?>
<!-- Generator: Adobe Illustrator 27.5.0, SVG Export Plug-In . SVG Version: 6.00 Build 0)  -->
<svg version="1.1" xmlns="http://www.w3.org/2000/svg" xmlns:xlink="http://www.w3.org/1999/xlink" x="0px" y="0px"
	 viewBox="0 0 500 500" style="enable-background:new 0 0 500 500;" xml:space="preserve">
<g id="BACKGROUND">
	<rect x="0" style="fill:#FFFFFF;" width="499.999" height="500"/>
</g>
<g id="OBJECTS">
	<g>
		<g>
			
				<text transform="matrix(1 0 0 1 157.5182 339.6859)" style="fill:#3B4051; font-family:'Outfit-ExtraBold'; font-size:41.7059px;">company</text>
			
				<text transform="matrix(1 0 0 1 165.7399 356.9456)" style="fill:#FF6224; font-family:'Lato-Regular'; font-size:12.9752px; letter-spacing:2;">tagline goes here</text>
		</g>
		<g>
			<polygon style="fill:#FF6224;" points="325.18,154.992 325.18,154.992 229.585,250.589 188.096,209.1 188.096,276.563 
				206.163,276.563 206.163,252.716 229.585,276.139 322.535,183.188 322.535,276.563 340.601,276.563 340.601,139.571 			"/>
			<polygon style="fill:#3B4051;" points="242.281,224.049 159.398,141.166 159.398,276.563 177.465,276.563 177.465,184.782 
				229.506,236.824 			"/>
			<polygon style="fill:#3B4051;" points="236.746,283.301 249.484,296.037 293.837,251.683 293.837,276.563 311.904,276.563 
				311.904,208.067 			"/>
		</g>
	</g>
</g>
</svg>
